<?xml version="1.0" encoding="UTF-8" standalone="no"?>
<!DOCTYPE svg PUBLIC "-//W3C//DTD SVG 1.1//EN" "http://www.w3.org/Graphics/SVG/1.1/DTD/svg11.dtd">
<svg width="100%" height="100%" viewBox="0 0 591 592" version="1.1" xmlns="http://www.w3.org/2000/svg" xmlns:xlink="http://www.w3.org/1999/xlink" xml:space="preserve" xmlns:serif="http://www.serif.com/" style="fill-rule:evenodd;clip-rule:evenodd;stroke-linejoin:round;stroke-miterlimit:2;">
    <g transform="matrix(1,0,0,1,-20376,-5739)">
        <g transform="matrix(8.33333,0,0,8.33333,15785.4,0)">
            <g transform="matrix(1,0,0,1,586.796,689.836)">
                <path d="M0,68.727C0.025,50.056 15.149,34.924 33.82,34.889C33.509,53.438 18.549,68.402 0,68.718L0,68.727ZM-34.909,34.935L-34.789,34.935C-16.554,35.015 -1.652,49.513 -1.071,67.739L-1.071,68.662C-19.606,68.352 -34.564,53.414 -34.9,34.88L-34.909,34.935ZM-34.909,34.012L-34.909,34.75L-34.909,34.012ZM-1.071,-0.002L-1.071,0.977C-1.629,19.264 -16.604,33.806 -34.9,33.827C-34.594,15.272 -19.626,0.304 -1.071,-0.002M6.435,33.827C2.05,33.827 -0.028,30.854 -0.028,24.474L-0.028,8.363C3.094,20.876 12.842,30.66 25.344,33.827L6.435,33.827ZM-0.028,44.242C-0.028,37.862 2.013,34.889 6.38,34.88L25.335,34.88C12.838,38.052 3.094,47.834 -0.028,60.344L-0.028,44.242ZM-4.487,34.353C-2.539,33.569 -1.246,31.888 -0.591,29.294C0.092,31.87 1.422,33.559 3.379,34.353C1.422,35.147 0.092,36.846 -0.591,39.422C-1.246,36.828 -2.539,35.147 -4.487,34.353M-26.415,33.827C-13.986,30.687 -4.265,21.009 -1.071,8.594L-1.071,24.474C-1.071,30.854 -3.093,33.827 -7.442,33.827L-26.415,33.827ZM-7.451,34.88C-3.102,34.88 -1.08,37.853 -1.08,44.242L-1.08,60.113C-4.279,47.714 -13.979,38.042 -26.387,34.88L-7.451,34.88ZM33.82,33.827C15.153,33.792 0.031,18.665 0,-0.002C18.551,0.309 33.514,15.276 33.82,33.827M-0.545,-1.073C-20.11,-1.042 -35.946,14.843 -35.915,34.409C-35.885,53.974 -19.999,69.81 -0.434,69.779C19.11,69.749 34.937,53.897 34.937,34.353C34.916,14.775 19.034,-1.083 -0.545,-1.073" style="fill:rgb(179,184,185);fill-rule:nonzero;"/>
            </g>
            <g transform="matrix(1,0,0,1,610.201,720.016)">
                <path d="M0,-18.226C0,-15.641 -3.195,-10.664 -7.774,-6.131C-10.268,-3.585 -13.113,-1.409 -16.222,0.332C-18.567,1.56 -20.358,1.901 -21.023,1.255C-21.26,0.976 -21.376,0.614 -21.346,0.249C-21.346,-2.336 -18.142,-7.313 -13.572,-11.846C-8.226,-17.146 -3.49,-19.556 -1.357,-19.556C-0.982,-19.586 -0.61,-19.466 -0.323,-19.223C-0.078,-18.937 0.038,-18.563 0,-18.189L0,-18.226ZM0.536,-20.073C-0.388,-20.996 -2.419,-20.903 -5.004,-19.759C-6.98,-18.835 -10.239,-16.896 -14.486,-12.696C-19.352,-7.867 -22.62,-2.66 -22.62,0.23C-22.741,1.505 -21.805,2.635 -20.531,2.755C-20.372,2.77 -20.212,2.769 -20.054,2.751C-17.635,2.751 -12.926,0.646 -6.952,-5.272C-2.087,-10.092 1.182,-15.299 1.182,-18.198C1.23,-18.885 0.997,-19.562 0.536,-20.073" style="fill:rgb(169,154,200);fill-rule:nonzero;"/>
            </g>
            <g transform="matrix(1,0,0,1,583.647,701.86)">
                <path d="M0,18.387C0.036,18.753 -0.081,19.117 -0.323,19.393C-0.606,19.638 -0.976,19.758 -1.348,19.726C-3.462,19.772 -8.217,17.371 -13.572,12.063C-18.189,7.529 -21.337,2.553 -21.337,-0.032C-21.372,-0.401 -21.255,-0.768 -21.014,-1.048C-20.728,-1.287 -20.36,-1.403 -19.989,-1.371C-18.661,-1.25 -17.375,-0.841 -16.222,-0.171C-13.112,1.573 -10.264,3.749 -7.765,6.292C-3.195,10.908 0,15.848 0,18.433L0,18.387ZM-6.906,5.461C-12.87,-0.448 -17.588,-2.562 -20.007,-2.562C-20.684,-2.599 -21.348,-2.367 -21.854,-1.916C-22.32,-1.417 -22.566,-0.751 -22.537,-0.069C-22.537,2.867 -19.269,8.074 -14.403,12.857C-10.165,17.067 -6.906,19.024 -4.921,19.92C-3.791,20.474 -2.559,20.788 -1.302,20.843C-0.03,20.986 1.117,20.071 1.261,18.8C1.278,18.641 1.28,18.481 1.265,18.322C1.237,15.525 -2.04,10.29 -6.906,5.461" style="fill:rgb(218,190,74);fill-rule:nonzero;"/>
            </g>
            <g transform="matrix(1,0,0,1,602.408,739.999)">
                <path d="M0,-5.543C4.616,-1.01 7.765,3.967 7.765,6.552C7.794,6.917 7.678,7.279 7.442,7.558C7.148,7.793 6.772,7.899 6.398,7.854C4.266,7.854 -0.462,5.435 -5.807,0.144C-10.424,-4.389 -13.581,-9.356 -13.581,-11.941C-13.612,-12.309 -13.496,-12.675 -13.258,-12.957C-12.969,-13.196 -12.598,-13.312 -12.224,-13.28C-10.896,-13.154 -9.613,-12.734 -8.466,-12.052C-5.34,-10.302 -2.482,-8.11 0.018,-5.543L0,-5.543ZM0.859,-6.411C-5.106,-12.329 -9.814,-14.434 -12.233,-14.434C-13.505,-14.578 -14.653,-13.664 -14.797,-12.392C-14.815,-12.23 -14.816,-12.067 -14.8,-11.904C-14.8,-8.978 -11.532,-3.77 -6.666,1.022C-2.419,5.222 0.831,7.18 2.816,8.075C3.946,8.629 5.178,8.944 6.435,8.999C7.11,9.035 7.773,8.806 8.282,8.362C8.746,7.861 8.992,7.197 8.965,6.515C9.011,3.616 5.743,-1.591 0.859,-6.411" style="fill:rgb(124,198,157);fill-rule:nonzero;"/>
            </g>
            <g transform="matrix(1,0,0,1,567.425,727.718)">
                <path d="M0,18.943C-2.336,20.162 -4.127,20.503 -4.792,19.866C-5.032,19.589 -5.149,19.225 -5.115,18.86C-5.115,16.265 -1.92,11.298 2.65,6.765C8.005,1.465 12.732,-0.944 14.874,-0.944C15.245,-0.979 15.615,-0.863 15.899,-0.621C16.141,-0.341 16.257,0.026 16.222,0.394C16.222,2.979 13.027,7.947 8.457,12.48C5.96,15.026 3.112,17.202 0,18.943M16.767,-1.517C15.843,-2.44 13.803,-2.348 11.227,-1.194C9.242,-0.27 5.983,1.668 1.745,5.869C-3.121,10.689 -6.398,15.905 -6.389,18.841C-6.52,20.104 -5.603,21.234 -4.34,21.366C-4.171,21.383 -4,21.382 -3.832,21.362C-1.413,21.362 3.305,19.257 9.27,13.339C14.135,8.519 17.413,3.303 17.413,0.413C17.472,-0.292 17.238,-0.99 16.767,-1.517" style="fill:rgb(120,186,200);fill-rule:nonzero;"/>
            </g>
        </g>
    </g>
</svg>
