<?xml version="1.0" encoding="UTF-8" standalone="no"?>
<!DOCTYPE svg PUBLIC "-//W3C//DTD SVG 1.1//EN" "http://www.w3.org/Graphics/SVG/1.1/DTD/svg11.dtd">
<svg width="100%" height="100%" viewBox="0 0 379 378" version="1.1" xmlns="http://www.w3.org/2000/svg" xmlns:xlink="http://www.w3.org/1999/xlink" xml:space="preserve" xmlns:serif="http://www.serif.com/" style="fill-rule:evenodd;clip-rule:evenodd;stroke-linejoin:round;stroke-miterlimit:2;">
    <g transform="matrix(1,0,0,1,-4085,-1758)">
        <g transform="matrix(8.33333,0,0,8.33333,0,0)">
            <g transform="matrix(1,0,0,1,528.625,218.29)">
                <path d="M0,30.777C0.249,30.506 0.38,30.137 0.38,29.673C0.38,27.819 -1.706,24.511 -4.81,21.444C-5.382,20.879 -5.937,20.37 -6.478,19.904C-3.083,17.416 1.06,15.884 5.549,15.725L6.327,15.725C6.238,21.581 3.841,26.888 0,30.777M-15.342,37.327L-15.342,37.305C-15.339,32.498 -13.751,28.056 -11.076,24.464C-10.596,25.014 -10.079,25.566 -9.528,26.11C-4.928,30.655 -1.236,31.935 -0.066,30.845C-3.982,34.778 -9.379,37.239 -15.342,37.327M-15.673,37.335L-15.67,37.335L-15.673,37.335ZM-31.276,30.847C-31.018,31.087 -30.641,31.214 -30.155,31.214C-28.437,31.214 -25.4,29.652 -21.815,26.11C-21.268,25.569 -20.754,25.021 -20.276,24.475C-17.604,28.068 -16.018,32.51 -16.018,37.317L-16.018,37.326C-21.973,37.234 -27.363,34.775 -31.276,30.847M-37.67,15.725L-36.912,15.725C-32.419,15.884 -28.273,17.418 -24.876,19.91C-25.413,20.373 -25.966,20.882 -26.533,21.443C-29.637,24.51 -31.723,27.818 -31.723,29.673C-31.723,30.138 -31.592,30.507 -31.342,30.778C-35.183,26.888 -37.581,21.582 -37.67,15.725M-31.342,0C-31.592,0.271 -31.723,0.639 -31.723,1.104C-31.723,2.959 -29.637,6.267 -26.533,9.334C-25.971,9.889 -25.426,10.389 -24.895,10.848C-28.478,13.471 -32.894,15.026 -37.669,15.031C-37.575,9.183 -35.178,3.884 -31.342,0M-16.019,-6.549C-16.025,-1.744 -17.613,2.698 -20.29,6.288C-20.764,5.746 -21.273,5.203 -21.815,4.668C-25.4,1.125 -28.437,-0.436 -30.155,-0.436C-30.641,-0.436 -31.018,-0.309 -31.276,-0.07C-27.363,-3.997 -21.974,-6.456 -16.019,-6.549M-0.066,-0.068C-1.236,-1.157 -4.928,0.122 -9.528,4.668C-10.074,5.207 -10.586,5.754 -11.064,6.299C-13.745,2.707 -15.336,-1.739 -15.342,-6.549C-9.379,-6.461 -3.982,-4.001 -0.066,-0.068M-11.23,15.051C-12.163,15.051 -12.927,14.836 -13.535,14.406C-13.415,14.425 -13.288,14.438 -13.151,14.438C-11.793,14.438 -9.611,13.459 -6.988,11.303C-4.643,13.044 -1.945,14.332 0.977,15.051L-11.23,15.051ZM-13.151,16.339C-13.289,16.339 -13.417,16.352 -13.537,16.372C-12.928,15.941 -12.164,15.725 -11.23,15.725L0.794,15.725C-2.068,16.455 -4.706,17.744 -7.007,19.459C-9.622,17.314 -11.796,16.339 -13.151,16.339M-7.009,20.3C-6.436,20.785 -5.851,21.313 -5.26,21.897C-2.315,24.806 -0.26,28.004 -0.26,29.673C-0.26,29.987 -0.337,30.222 -0.489,30.372C-0.646,30.527 -0.888,30.603 -1.202,30.603C-2.698,30.603 -5.824,28.872 -9.078,25.656C-9.649,25.093 -10.184,24.519 -10.68,23.946C-9.605,22.591 -8.373,21.365 -7.009,20.3M-14.078,17.88C-14.078,17.567 -14.001,17.331 -13.849,17.181C-13.123,16.465 -10.557,17.437 -7.535,19.864C-8.86,20.914 -10.061,22.111 -11.117,23.429C-12.928,21.231 -14.078,19.128 -14.078,17.88M-15.342,21.699C-15.342,20.093 -15.135,18.83 -14.718,17.882C-14.716,19.304 -13.49,21.576 -11.524,23.939C-13.288,26.277 -14.606,28.967 -15.342,31.887L-15.342,21.699ZM-18.2,15.388C-16.952,14.884 -16.122,13.812 -15.7,12.154C-15.264,13.8 -14.415,14.881 -13.16,15.388C-14.415,15.897 -15.264,16.977 -15.7,18.623C-16.122,16.965 -16.952,15.893 -18.2,15.388M-16.627,17.903C-16.219,18.848 -16.018,20.105 -16.018,21.699L-16.018,31.891C-16.752,28.974 -18.068,26.286 -19.829,23.951C-17.866,21.595 -16.639,19.329 -16.627,17.903M-23.818,19.872C-21.443,17.963 -19.349,16.95 -18.206,16.95C-17.892,16.95 -17.65,17.027 -17.494,17.181C-17.342,17.331 -17.265,17.566 -17.265,17.88C-17.264,19.13 -18.418,21.238 -20.235,23.441C-21.291,22.121 -22.492,20.923 -23.818,19.872M-20.673,23.958C-21.165,24.526 -21.698,25.096 -22.265,25.656C-26.201,29.546 -29.951,31.263 -30.854,30.372C-31.006,30.222 -31.083,29.986 -31.083,29.673C-31.083,28.004 -29.027,24.806 -26.083,21.897C-25.497,21.317 -24.915,20.788 -24.345,20.306C-22.98,21.373 -21.747,22.6 -20.673,23.958M-20.094,15.725C-19.162,15.725 -18.402,15.944 -17.797,16.38C-19.099,16.154 -21.449,17.091 -24.343,19.467C-26.648,17.748 -29.29,16.456 -32.158,15.725L-20.094,15.725ZM-24.366,11.297C-21.463,13.684 -19.105,14.623 -17.798,14.399C-18.403,14.834 -19.163,15.051 -20.094,15.051L-32.34,15.051C-29.414,14.331 -26.713,13.04 -24.366,11.297M-24.371,10.449C-24.932,9.973 -25.505,9.452 -26.083,8.881C-29.027,5.971 -31.083,2.774 -31.083,1.104C-31.083,0.791 -31.006,0.555 -30.854,0.405C-29.951,-0.485 -26.201,1.232 -22.265,5.121C-21.705,5.674 -21.177,6.238 -20.69,6.8C-21.767,8.158 -23.003,9.383 -24.371,10.449M-19.844,6.809C-18.074,4.469 -16.755,1.774 -16.018,-1.151L-16.018,9.078C-16.018,10.672 -16.219,11.928 -16.627,12.873C-16.64,11.444 -17.873,9.171 -19.844,6.809M-17.265,12.898C-17.265,13.212 -17.342,13.446 -17.494,13.596C-17.65,13.751 -17.892,13.827 -18.206,13.827C-19.353,13.827 -21.459,12.806 -23.846,10.883C-22.516,9.833 -21.311,8.637 -20.251,7.318C-18.425,9.527 -17.264,11.644 -17.265,12.898M-14.718,12.894C-15.135,11.947 -15.342,10.684 -15.342,9.078L-15.342,-1.148C-14.604,1.781 -13.281,4.478 -11.508,6.82C-13.483,9.189 -14.716,11.469 -14.718,12.894M-10.663,6.811C-10.173,6.246 -9.642,5.678 -9.078,5.121C-5.824,1.906 -2.698,0.174 -1.202,0.174C-0.888,0.174 -0.646,0.251 -0.489,0.405C-0.337,0.555 -0.26,0.791 -0.26,1.104C-0.26,2.774 -2.315,5.971 -5.26,8.881C-5.842,9.456 -6.418,9.977 -6.983,10.456C-8.351,9.391 -9.586,8.167 -10.663,6.811M-7.506,10.891C-10.542,13.335 -13.121,14.315 -13.849,13.596C-14.001,13.446 -14.078,13.211 -14.078,12.898C-14.078,11.645 -12.922,9.533 -11.101,7.328C-10.041,8.647 -8.836,9.841 -7.506,10.891M6.326,15.031C1.552,15.028 -2.873,13.476 -6.457,10.856C-5.923,10.394 -5.374,9.892 -4.81,9.334C-1.706,6.267 0.38,2.959 0.38,1.104C0.38,0.64 0.249,0.272 0,0.001C3.836,3.885 6.232,9.184 6.326,15.031M-15.672,-7.232C-28.179,-7.232 -38.354,2.916 -38.354,15.389C-38.354,27.861 -28.179,38.009 -15.672,38.009C-3.164,38.009 7.011,27.861 7.011,15.389C7.011,2.916 -3.164,-7.232 -15.672,-7.232" style="fill:rgb(170,154,200);fill-rule:nonzero;"/>
            </g>
        </g>
    </g>
</svg>
