<?xml version="1.0" encoding="UTF-8" standalone="no"?>
<!DOCTYPE svg PUBLIC "-//W3C//DTD SVG 1.1//EN" "http://www.w3.org/Graphics/SVG/1.1/DTD/svg11.dtd">
<svg width="100%" height="100%" viewBox="0 0 376 375" version="1.1" xmlns="http://www.w3.org/2000/svg" xmlns:xlink="http://www.w3.org/1999/xlink" xml:space="preserve" xmlns:serif="http://www.serif.com/" style="fill-rule:evenodd;clip-rule:evenodd;stroke-linejoin:round;stroke-miterlimit:2;">
    <g transform="matrix(1,0,0,1,-1329,-3227)">
        <g transform="matrix(8.33333,0,0,8.33333,0,0)">
            <g transform="matrix(1,0,0,1,197.563,394.437)">
                <path d="M0,30.6C0.247,30.33 0.376,29.964 0.376,29.503C0.377,27.659 -1.691,24.37 -4.769,21.32C-5.336,20.759 -5.887,20.253 -6.423,19.789C-3.057,17.315 1.051,15.793 5.502,15.635L6.273,15.635C6.185,21.457 3.808,26.733 0,30.6M-15.212,37.113L-15.212,37.091C-15.21,32.311 -13.635,27.894 -10.983,24.324C-10.506,24.871 -9.994,25.419 -9.447,25.96C-4.887,30.479 -1.226,31.751 -0.065,30.668C-3.949,34.579 -9.299,37.025 -15.212,37.113M-15.54,37.121L-15.538,37.121L-15.54,37.121ZM-31.011,30.67C-30.756,30.908 -30.381,31.034 -29.9,31.034C-28.196,31.034 -25.186,29.482 -21.63,25.96C-21.088,25.422 -20.579,24.877 -20.105,24.334C-17.455,27.906 -15.883,32.323 -15.883,37.103L-15.882,37.103L-15.882,37.112C-21.788,37.02 -27.132,34.576 -31.011,30.67M-37.351,15.635L-36.6,15.635C-32.145,15.793 -28.034,17.318 -24.665,19.796C-25.198,20.256 -25.746,20.763 -26.308,21.32C-29.387,24.37 -31.455,27.658 -31.454,29.503C-31.454,29.965 -31.324,30.331 -31.077,30.601C-34.886,26.734 -37.263,21.457 -37.351,15.635M-31.077,-0.001C-31.324,0.268 -31.454,0.635 -31.454,1.097C-31.455,2.942 -29.387,6.23 -26.308,9.28C-25.752,9.832 -25.211,10.329 -24.684,10.786C-28.237,13.393 -32.616,14.939 -37.351,14.944C-37.257,9.13 -34.881,3.861 -31.077,-0.001M-15.883,-6.512C-15.889,-1.734 -17.464,2.682 -20.118,6.251C-20.588,5.713 -21.093,5.173 -21.63,4.641C-25.186,1.118 -28.196,-0.434 -29.9,-0.434C-30.381,-0.434 -30.756,-0.308 -31.011,-0.07C-27.132,-3.975 -21.788,-6.42 -15.883,-6.512M-0.065,-0.068C-1.226,-1.151 -4.887,0.121 -9.447,4.64C-9.989,5.177 -10.497,5.72 -10.97,6.262C-13.629,2.691 -15.206,-1.73 -15.212,-6.512C-9.299,-6.425 -3.949,-3.978 -0.065,-0.068M-11.135,14.964C-12.06,14.964 -12.817,14.751 -13.421,14.323C-13.302,14.343 -13.176,14.354 -13.039,14.354C-11.693,14.354 -9.53,13.381 -6.929,11.238C-4.604,12.969 -1.929,14.249 0.968,14.964L-11.135,14.964ZM-13.039,16.246C-13.176,16.246 -13.303,16.258 -13.423,16.278C-12.819,15.849 -12.061,15.635 -11.135,15.635L0.788,15.635C-2.051,16.36 -4.666,17.642 -6.948,19.347C-9.54,17.214 -11.696,16.246 -13.039,16.246M-6.95,20.183C-6.381,20.665 -5.801,21.191 -5.215,21.771C-2.296,24.663 -0.257,27.843 -0.258,29.503C-0.258,29.815 -0.334,30.048 -0.485,30.198C-0.64,30.351 -0.88,30.427 -1.191,30.427C-2.675,30.427 -5.775,28.706 -9.002,25.509C-9.567,24.949 -10.098,24.378 -10.589,23.809C-9.524,22.461 -8.302,21.243 -6.95,20.183M-13.959,17.777C-13.959,17.465 -13.883,17.231 -13.732,17.082C-13.012,16.371 -10.468,17.337 -7.471,19.75C-8.785,20.794 -9.976,21.984 -11.023,23.294C-12.819,21.109 -13.959,19.018 -13.959,17.777M-15.212,21.575C-15.212,19.977 -15.007,18.721 -14.593,17.78C-14.592,19.193 -13.376,21.452 -11.426,23.802C-13.176,26.125 -14.482,28.801 -15.212,31.704L-15.212,21.575ZM-18.046,15.3C-16.808,14.798 -15.986,13.732 -15.568,12.084C-15.135,13.72 -14.293,14.795 -13.049,15.3C-14.293,15.805 -15.135,16.88 -15.568,18.516C-15.986,16.868 -16.808,15.801 -18.046,15.3M-16.486,17.801C-16.082,18.74 -15.882,19.989 -15.882,21.575L-15.882,31.708C-16.611,28.808 -17.915,26.135 -19.662,23.813C-17.715,21.471 -16.499,19.218 -16.486,17.801M-23.617,19.758C-21.262,17.86 -19.185,16.853 -18.052,16.853C-17.741,16.853 -17.501,16.929 -17.346,17.082C-17.195,17.231 -17.119,17.465 -17.119,17.777C-17.118,19.02 -18.262,21.116 -20.064,23.306C-21.111,21.994 -22.302,20.803 -23.617,19.758M-20.498,23.82C-20.986,24.385 -21.514,24.952 -22.076,25.509C-25.98,29.376 -29.698,31.083 -30.593,30.198C-30.744,30.048 -30.82,29.814 -30.82,29.503C-30.82,27.843 -28.782,24.663 -25.862,21.771C-25.281,21.195 -24.704,20.668 -24.139,20.189C-22.786,21.25 -21.564,22.47 -20.498,23.82M-19.924,15.635C-19,15.635 -18.246,15.851 -17.646,16.285C-18.938,16.061 -21.267,16.993 -24.137,19.355C-26.422,17.646 -29.042,16.362 -31.886,15.635L-19.924,15.635ZM-24.16,11.231C-21.282,13.605 -18.943,14.538 -17.648,14.315C-18.248,14.748 -19.001,14.964 -19.924,14.964L-32.066,14.964C-29.165,14.248 -26.487,12.965 -24.16,11.231M-24.164,10.389C-24.721,9.916 -25.289,9.397 -25.862,8.829C-28.782,5.937 -30.82,2.757 -30.82,1.097C-30.82,0.786 -30.744,0.552 -30.593,0.403C-29.698,-0.483 -25.98,1.224 -22.076,5.091C-21.521,5.642 -20.998,6.202 -20.515,6.761C-21.582,8.111 -22.808,9.329 -24.164,10.389M-19.676,6.769C-17.921,4.443 -16.613,1.763 -15.882,-1.146L-15.882,9.025C-15.882,10.61 -16.082,11.86 -16.486,12.799C-16.499,11.378 -17.722,9.118 -19.676,6.769M-17.119,12.824C-17.119,13.135 -17.195,13.369 -17.346,13.518C-17.501,13.672 -17.741,13.747 -18.052,13.747C-19.19,13.747 -21.278,12.732 -23.644,10.82C-22.326,9.776 -21.131,8.587 -20.08,7.275C-18.269,9.472 -17.118,11.576 -17.119,12.824M-14.593,12.82C-15.007,11.878 -15.212,10.622 -15.212,9.025L-15.212,-1.142C-14.48,1.77 -13.169,4.452 -11.411,6.78C-13.369,9.136 -14.591,11.403 -14.593,12.82M-10.573,6.771C-10.086,6.209 -9.561,5.645 -9.002,5.091C-5.775,1.894 -2.675,0.173 -1.191,0.173C-0.88,0.173 -0.64,0.249 -0.485,0.402C-0.334,0.552 -0.258,0.786 -0.258,1.097C-0.257,2.757 -2.296,5.936 -5.215,8.829C-5.792,9.401 -6.364,9.919 -6.924,10.395C-8.28,9.336 -9.505,8.12 -10.573,6.771M-7.443,10.828C-10.452,13.258 -13.01,14.232 -13.732,13.518C-13.883,13.369 -13.959,13.135 -13.959,12.823C-13.959,11.578 -12.813,9.478 -11.008,7.286C-9.956,8.597 -8.761,9.785 -7.443,10.828M6.273,14.945C1.539,14.942 -2.849,13.398 -6.402,10.793C-5.873,10.334 -5.329,9.834 -4.769,9.28C-1.691,6.23 0.377,2.942 0.376,1.097C0.376,0.636 0.247,0.269 0,0C3.804,3.862 6.179,9.13 6.273,14.945M-15.539,-7.191C-27.941,-7.191 -38.03,2.898 -38.03,15.3C-38.03,27.702 -27.941,37.791 -15.539,37.791C-3.138,37.791 6.952,27.702 6.952,15.3C6.952,2.898 -3.138,-7.191 -15.539,-7.191" style="fill:rgb(120,186,200);fill-rule:nonzero;"/>
            </g>
        </g>
    </g>
</svg>
