<?xml version="1.0" encoding="UTF-8" standalone="no"?>
<!DOCTYPE svg PUBLIC "-//W3C//DTD SVG 1.1//EN" "http://www.w3.org/Graphics/SVG/1.1/DTD/svg11.dtd">
<svg width="100%" height="100%" viewBox="0 0 376 375" version="1.1" xmlns="http://www.w3.org/2000/svg" xmlns:xlink="http://www.w3.org/1999/xlink" xml:space="preserve" xmlns:serif="http://www.serif.com/" style="fill-rule:evenodd;clip-rule:evenodd;stroke-linejoin:round;stroke-miterlimit:2;">
    <g transform="matrix(1,0,0,1,-1430,-1760)">
        <g transform="matrix(8.33333,0,0,8.33333,0,0)">
            <g transform="matrix(1,0,0,1,209.666,218.39)">
                <path d="M0,30.577C0.247,30.307 0.376,29.942 0.376,29.481C0.377,27.638 -1.69,24.351 -4.766,21.304C-5.332,20.743 -5.883,20.237 -6.418,19.775C-3.054,17.302 1.05,15.781 5.497,15.622L6.269,15.622C6.18,21.441 3.805,26.713 0,30.577M-15.201,37.084L-15.201,37.063C-15.198,32.287 -13.625,27.873 -10.974,24.305C-10.498,24.851 -9.986,25.4 -9.44,25.94C-4.883,30.456 -1.225,31.727 -0.065,30.645C-3.946,34.553 -9.293,36.997 -15.201,37.084M-15.529,37.093L-15.526,37.093L-15.529,37.093ZM-30.988,30.647C-30.733,30.885 -30.359,31.011 -29.878,31.011C-28.175,31.011 -25.167,29.46 -21.614,25.94C-21.072,25.403 -20.564,24.858 -20.09,24.316C-17.442,27.885 -15.871,32.299 -15.871,37.075L-15.87,37.075L-15.87,37.084C-21.771,36.992 -27.111,34.549 -30.988,30.647M-37.323,15.622L-36.573,15.622C-32.121,15.781 -28.013,17.305 -24.647,19.781C-25.179,20.241 -25.727,20.747 -26.289,21.304C-29.365,24.351 -31.431,27.637 -31.431,29.481C-31.431,29.942 -31.301,30.308 -31.054,30.578C-34.86,26.714 -37.235,21.441 -37.323,15.622M-31.054,-0.002C-31.301,0.268 -31.431,0.635 -31.431,1.096C-31.431,2.939 -29.365,6.225 -26.289,9.273C-25.733,9.824 -25.192,10.321 -24.666,10.777C-28.216,13.383 -32.592,14.928 -37.323,14.933C-37.229,9.122 -34.855,3.858 -31.054,-0.002M-15.871,-6.507C-15.877,-1.734 -17.451,2.68 -20.103,6.246C-20.573,5.708 -21.077,5.169 -21.614,4.637C-25.167,1.117 -28.175,-0.434 -29.878,-0.434C-30.359,-0.434 -30.733,-0.308 -30.988,-0.07C-27.111,-3.972 -21.772,-6.415 -15.871,-6.507M-0.065,-0.069C-1.225,-1.151 -4.883,0.12 -9.44,4.637C-9.981,5.172 -10.489,5.716 -10.962,6.257C-13.619,2.689 -15.195,-1.729 -15.201,-6.508C-9.292,-6.42 -3.946,-3.976 -0.065,-0.069M-11.127,14.953C-12.051,14.953 -12.808,14.74 -13.411,14.312C-13.292,14.331 -13.166,14.344 -13.03,14.344C-11.684,14.344 -9.523,13.37 -6.924,11.229C-4.6,12.958 -1.927,14.239 0.968,14.953L-11.127,14.953ZM-13.03,16.233C-13.167,16.233 -13.293,16.245 -13.413,16.265C-12.809,15.837 -12.052,15.622 -11.127,15.622L0.787,15.622C-2.049,16.348 -4.662,17.629 -6.943,19.332C-9.533,17.202 -11.688,16.233 -13.03,16.233M-6.944,20.168C-6.376,20.649 -5.797,21.175 -5.211,21.754C-2.294,24.645 -0.257,27.822 -0.258,29.481C-0.258,29.792 -0.334,30.026 -0.485,30.175C-0.64,30.328 -0.88,30.404 -1.19,30.404C-2.673,30.404 -5.77,28.684 -8.995,25.49C-9.56,24.93 -10.091,24.359 -10.581,23.791C-9.517,22.444 -8.296,21.226 -6.944,20.168M-13.949,17.764C-13.949,17.452 -13.872,17.218 -13.722,17.069C-13.003,16.358 -10.46,17.324 -7.465,19.735C-8.779,20.778 -9.968,21.967 -11.015,23.277C-12.81,21.093 -13.949,19.004 -13.949,17.764M-15.201,21.558C-15.201,19.962 -14.996,18.707 -14.582,17.766C-14.581,19.178 -13.366,21.435 -11.418,23.784C-13.166,26.106 -14.472,28.779 -15.201,31.681L-15.201,21.558ZM-18.032,15.288C-16.796,14.787 -15.974,13.722 -15.556,12.075C-15.124,13.71 -14.282,14.784 -13.039,15.288C-14.282,15.793 -15.124,16.867 -15.556,18.502C-15.974,16.855 -16.796,15.789 -18.032,15.288M-16.474,17.787C-16.07,18.725 -15.87,19.974 -15.87,21.558L-15.87,31.684C-16.598,28.786 -17.902,26.116 -19.647,23.795C-17.702,21.454 -16.486,19.203 -16.474,17.787M-23.599,19.743C-21.246,17.846 -19.171,16.84 -18.039,16.84C-17.728,16.84 -17.488,16.915 -17.333,17.069C-17.182,17.218 -17.106,17.452 -17.106,17.763C-17.106,19.006 -18.249,21.1 -20.049,23.288C-21.096,21.977 -22.285,20.787 -23.599,19.743M-20.483,23.802C-20.971,24.367 -21.498,24.933 -22.06,25.489C-25.96,29.354 -29.675,31.06 -30.57,30.175C-30.721,30.026 -30.797,29.792 -30.797,29.48C-30.797,27.822 -28.76,24.644 -25.843,21.754C-25.262,21.179 -24.686,20.653 -24.121,20.174C-22.769,21.234 -21.547,22.453 -20.483,23.802M-19.909,15.622C-18.986,15.622 -18.232,15.839 -17.633,16.273C-18.923,16.049 -21.251,16.98 -24.119,19.34C-26.403,17.633 -29.02,16.349 -31.862,15.622L-19.909,15.622ZM-24.142,11.223C-21.266,13.595 -18.929,14.527 -17.635,14.305C-18.234,14.737 -18.987,14.953 -19.909,14.953L-32.042,14.953C-29.144,14.238 -26.467,12.955 -24.142,11.223M-24.146,10.381C-24.703,9.908 -25.271,9.39 -25.843,8.823C-28.76,5.932 -30.797,2.755 -30.797,1.096C-30.797,0.785 -30.721,0.551 -30.57,0.402C-29.675,-0.483 -25.96,1.223 -22.06,5.087C-21.505,5.637 -20.982,6.197 -20.499,6.755C-21.566,8.104 -22.791,9.322 -24.146,10.381M-19.662,6.764C-17.908,4.439 -16.601,1.762 -15.87,-1.145L-15.87,9.018C-15.87,10.602 -16.07,11.85 -16.474,12.789C-16.487,11.369 -17.709,9.111 -19.662,6.764M-17.106,12.814C-17.106,13.125 -17.182,13.359 -17.333,13.508C-17.488,13.661 -17.728,13.737 -18.039,13.737C-19.175,13.737 -21.262,12.723 -23.626,10.811C-22.309,9.768 -21.115,8.58 -20.065,7.269C-18.256,9.464 -17.106,11.567 -17.106,12.814M-14.582,12.81C-14.996,11.869 -15.201,10.615 -15.201,9.018L-15.201,-1.141C-14.469,1.769 -13.159,4.449 -11.402,6.775C-13.359,9.129 -14.581,11.394 -14.582,12.81M-10.565,6.766C-10.079,6.204 -9.553,5.64 -8.995,5.087C-5.77,1.892 -2.673,0.173 -1.19,0.173C-0.88,0.173 -0.64,0.248 -0.485,0.402C-0.334,0.551 -0.258,0.785 -0.258,1.096C-0.257,2.755 -2.294,5.932 -5.211,8.822C-5.788,9.393 -6.359,9.911 -6.919,10.387C-8.274,9.329 -9.498,8.114 -10.565,6.766M-7.437,10.819C-10.445,13.248 -13,14.221 -13.722,13.508C-13.872,13.358 -13.949,13.125 -13.949,12.813C-13.949,11.569 -12.803,9.471 -10.999,7.28C-9.949,8.59 -8.755,9.777 -7.437,10.819M6.268,14.933C1.538,14.931 -2.847,13.388 -6.398,10.785C-5.869,10.327 -5.325,9.827 -4.766,9.273C-1.69,6.225 0.377,2.939 0.376,1.096C0.376,0.635 0.247,0.269 0,0C3.801,3.859 6.175,9.123 6.268,14.933M-15.527,-7.186C-27.92,-7.186 -38.001,2.896 -38.001,15.288C-38.001,27.681 -27.92,37.763 -15.527,37.763C-3.135,37.763 6.947,27.681 6.947,15.288C6.947,2.896 -3.135,-7.186 -15.527,-7.186" style="fill:rgb(219,189,73);fill-rule:nonzero;"/>
            </g>
        </g>
    </g>
</svg>
