<?xml version="1.0" encoding="UTF-8" standalone="no"?>
<!DOCTYPE svg PUBLIC "-//W3C//DTD SVG 1.1//EN" "http://www.w3.org/Graphics/SVG/1.1/DTD/svg11.dtd">
<svg width="100%" height="100%" viewBox="0 0 378 377" version="1.1" xmlns="http://www.w3.org/2000/svg" xmlns:xlink="http://www.w3.org/1999/xlink" xml:space="preserve" xmlns:serif="http://www.serif.com/" style="fill-rule:evenodd;clip-rule:evenodd;stroke-linejoin:round;stroke-miterlimit:2;">
    <g transform="matrix(1,0,0,1,-3984,-3226)">
        <g transform="matrix(8.33333,0,0,8.33333,0,0)">
            <g transform="matrix(1,0,0,1,516.381,394.353)">
                <path d="M0,30.767C0.248,30.496 0.378,30.127 0.378,29.664C0.379,27.809 -1.7,24.503 -4.795,21.436C-5.365,20.872 -5.919,20.363 -6.458,19.898C-3.073,17.411 1.056,15.88 5.531,15.72L6.307,15.721C6.219,21.575 3.829,26.879 0,30.767M-15.294,37.314L-15.294,37.293C-15.292,32.487 -13.709,28.047 -11.042,24.456C-10.563,25.006 -10.048,25.558 -9.499,26.101C-4.913,30.645 -1.232,31.924 -0.065,30.835C-3.97,34.767 -9.35,37.226 -15.294,37.314M-15.625,37.323L-15.622,37.323L-15.625,37.323ZM-31.179,30.837C-30.922,31.076 -30.546,31.203 -30.062,31.203C-28.349,31.203 -25.322,29.643 -21.747,26.101C-21.202,25.561 -20.69,25.013 -20.214,24.467C-17.549,28.059 -15.969,32.499 -15.969,37.305L-15.968,37.305L-15.968,37.314C-21.905,37.222 -27.278,34.764 -31.179,30.837M-37.553,15.72L-36.798,15.72C-32.319,15.88 -28.185,17.413 -24.799,19.904C-25.334,20.367 -25.885,20.876 -26.451,21.436C-29.546,24.502 -31.625,27.809 -31.624,29.664C-31.624,30.128 -31.494,30.497 -31.245,30.768C-35.074,26.88 -37.464,21.575 -37.553,15.72M-31.245,0C-31.494,0.271 -31.624,0.64 -31.624,1.104C-31.625,2.959 -29.546,6.266 -26.451,9.332C-25.891,9.886 -25.347,10.386 -24.818,10.845C-28.39,13.467 -32.792,15.021 -37.553,15.026C-37.458,9.18 -35.07,3.883 -31.245,0M-15.969,-6.546C-15.975,-1.743 -17.558,2.698 -20.227,6.286C-20.7,5.745 -21.207,5.203 -21.747,4.667C-25.322,1.125 -28.349,-0.435 -30.062,-0.435C-30.546,-0.435 -30.922,-0.308 -31.179,-0.069C-27.279,-3.995 -21.906,-6.453 -15.969,-6.546M-0.065,-0.067C-1.232,-1.156 -4.913,0.123 -9.499,4.666C-10.043,5.206 -10.554,5.752 -11.029,6.297C-13.702,2.707 -15.288,-1.738 -15.294,-6.546C-9.35,-6.458 -3.97,-3.999 -0.065,-0.067M-11.195,15.047C-12.125,15.047 -12.887,14.831 -13.493,14.402C-13.374,14.421 -13.247,14.434 -13.11,14.434C-11.756,14.434 -9.581,13.455 -6.966,11.3C-4.629,13.04 -1.939,14.328 0.974,15.047L-11.195,15.047ZM-13.11,16.335C-13.248,16.335 -13.375,16.347 -13.495,16.367C-12.888,15.936 -12.126,15.72 -11.195,15.72L0.792,15.72C-2.062,16.45 -4.691,17.739 -6.985,19.453C-9.592,17.309 -11.76,16.335 -13.11,16.335M-6.987,20.294C-6.416,20.778 -5.833,21.307 -5.244,21.89C-2.308,24.798 -0.259,27.995 -0.259,29.664C-0.259,29.977 -0.336,30.212 -0.488,30.362C-0.644,30.517 -0.885,30.593 -1.198,30.593C-2.689,30.593 -5.806,28.862 -9.05,25.648C-9.619,25.085 -10.153,24.511 -10.647,23.939C-9.576,22.584 -8.347,21.359 -6.987,20.294M-14.035,17.874C-14.035,17.561 -13.958,17.326 -13.806,17.176C-13.083,16.46 -10.525,17.432 -7.511,19.858C-8.833,20.908 -10.03,22.104 -11.083,23.422C-12.888,21.225 -14.035,19.122 -14.035,17.874M-15.294,21.693C-15.294,20.086 -15.089,18.824 -14.672,17.877C-14.671,19.298 -13.449,21.569 -11.488,23.932C-13.247,26.268 -14.561,28.958 -15.294,31.877L-15.294,21.693ZM-18.143,15.384C-16.899,14.88 -16.073,13.808 -15.652,12.151C-15.217,13.796 -14.37,14.876 -13.119,15.384C-14.37,15.892 -15.217,16.972 -15.652,18.618C-16.073,16.96 -16.899,15.888 -18.143,15.384M-16.575,17.898C-16.169,18.843 -15.968,20.099 -15.968,21.693L-15.968,31.881C-16.701,28.965 -18.012,26.278 -19.768,23.943C-17.811,21.588 -16.588,19.323 -16.575,17.898M-23.744,19.866C-21.377,17.957 -19.289,16.945 -18.15,16.945C-17.837,16.945 -17.596,17.021 -17.44,17.176C-17.288,17.326 -17.211,17.56 -17.211,17.874C-17.211,19.124 -18.361,21.232 -20.172,23.433C-21.225,22.114 -22.423,20.916 -23.744,19.866M-20.609,23.95C-21.1,24.518 -21.631,25.088 -22.196,25.648C-26.12,29.536 -29.858,31.252 -30.758,30.362C-30.91,30.212 -30.987,29.977 -30.987,29.663C-30.987,27.995 -28.938,24.798 -26.002,21.89C-25.418,21.31 -24.838,20.781 -24.27,20.3C-22.909,21.366 -21.68,22.593 -20.609,23.95M-20.031,15.72C-19.103,15.72 -18.345,15.938 -17.742,16.374C-19.04,16.15 -21.382,17.086 -24.268,19.461C-26.565,17.743 -29.199,16.451 -32.058,15.72L-20.031,15.72ZM-24.291,11.293C-21.397,13.68 -19.046,14.618 -17.743,14.394C-18.346,14.829 -19.104,15.047 -20.031,15.047L-32.24,15.047C-29.323,14.327 -26.63,13.037 -24.291,11.293M-24.295,10.446C-24.855,9.971 -25.426,9.449 -26.002,8.878C-28.938,5.97 -30.987,2.773 -30.987,1.104C-30.987,0.791 -30.91,0.556 -30.758,0.406C-29.858,-0.484 -26.12,1.232 -22.196,5.12C-21.637,5.673 -21.112,6.237 -20.625,6.798C-21.699,8.156 -22.931,9.381 -24.295,10.446M-19.783,6.807C-18.018,4.468 -16.703,1.774 -15.968,-1.15L-15.968,9.075C-15.968,10.669 -16.169,11.925 -16.575,12.869C-16.588,11.441 -17.818,9.168 -19.783,6.807M-17.211,12.894C-17.211,13.207 -17.288,13.442 -17.44,13.593C-17.596,13.747 -17.837,13.823 -18.15,13.823C-19.293,13.823 -21.393,12.803 -23.772,10.88C-22.446,9.83 -21.245,8.635 -20.188,7.315C-18.368,9.524 -17.211,11.64 -17.211,12.894M-14.672,12.891C-15.089,11.944 -15.294,10.682 -15.294,9.075L-15.294,-1.147C-14.559,1.781 -13.24,4.477 -11.472,6.818C-13.442,9.187 -14.67,11.466 -14.672,12.891M-10.63,6.809C-10.141,6.244 -9.612,5.677 -9.05,5.12C-5.806,1.906 -2.689,0.175 -1.198,0.175C-0.885,0.175 -0.644,0.251 -0.488,0.406C-0.336,0.556 -0.259,0.791 -0.259,1.104C-0.259,2.773 -2.308,5.97 -5.244,8.878C-5.824,9.453 -6.398,9.974 -6.962,10.453C-8.325,9.388 -9.556,8.165 -10.63,6.809M-7.483,10.888C-10.509,13.331 -13.08,14.31 -13.806,13.592C-13.958,13.442 -14.035,13.207 -14.035,12.894C-14.035,11.642 -12.882,9.531 -11.067,7.327C-10.01,8.645 -8.808,9.839 -7.483,10.888M6.307,15.027C1.547,15.024 -2.864,13.472 -6.437,10.852C-5.905,10.392 -5.358,9.889 -4.795,9.331C-1.7,6.265 0.379,2.959 0.378,1.104C0.378,0.641 0.248,0.272 0,0.001C3.824,3.885 6.213,9.181 6.307,15.027M-15.623,-7.229C-28.092,-7.229 -38.235,2.915 -38.235,15.384C-38.235,27.852 -28.092,37.996 -15.623,37.996C-3.155,37.996 6.99,27.852 6.99,15.384C6.99,2.915 -3.155,-7.229 -15.623,-7.229" style="fill:rgb(123,198,156);fill-rule:nonzero;"/>
            </g>
        </g>
    </g>
</svg>
